<?xml version="1.0" encoding="UTF-8"?>
<svg width="20px" height="20px" viewBox="0 0 20 20" version="1.1" xmlns="http://www.w3.org/2000/svg" xmlns:xlink="http://www.w3.org/1999/xlink">
    <!-- Generator: Sketch 48.2 (47327) - http://www.bohemiancoding.com/sketch -->
    <title>icon-alert</title>
    <desc>Created with Sketch.</desc>
    <defs></defs>
    <g id="Symbols" stroke="none" stroke-width="1" fill="none" fill-rule="evenodd">
        <g id="icon-alert">
            <g>
                <circle id="Oval-2" fill="#000000" cx="10" cy="10" r="10"></circle>
                <path d="M9.9921429,10.92 C9.92214255,10.92 9.85964317,10.8950002 9.8046429,10.845 C9.74964262,10.7949997 9.71714295,10.7400003 9.7071429,10.68 L9.1221429,6.495 L9.1221429,4.785 C9.1221429,4.71499965 9.14964262,4.6500003 9.2046429,4.59 C9.25964317,4.5299997 9.3271425,4.5 9.4071429,4.5 L11.0571429,4.5 C11.1371433,4.5 11.2046426,4.5299997 11.2596429,4.59 C11.3146432,4.6500003 11.3421429,4.71499965 11.3421429,4.785 L11.3421429,6.465 L10.7571429,10.68 C10.7471428,10.7400003 10.7146432,10.7949997 10.6596429,10.845 C10.6046426,10.8950002 10.5421432,10.92 10.4721429,10.92 L9.9921429,10.92 Z M9.0021429,13.92 C9.0021429,13.5799983 9.1221417,13.2875012 9.3621429,13.0425 C9.6021441,12.7974988 9.88714125,12.675 10.2171429,12.675 C10.5571446,12.675 10.8496417,12.7974988 11.0946429,13.0425 C11.3396441,13.2875012 11.4621429,13.5799983 11.4621429,13.92 C11.4621429,14.2600017 11.3396441,14.5499988 11.0946429,14.79 C10.8496417,15.0300012 10.5571446,15.15 10.2171429,15.15 C9.88714125,15.15 9.6021441,15.0300012 9.3621429,14.79 C9.1221417,14.5499988 9.0021429,14.2600017 9.0021429,13.92 Z" id="!" fill="#FFFFFF"></path>
            </g>
        </g>
    </g>
</svg>