<?xml version="1.0" encoding="UTF-8"?>
<svg width="20px" height="23px" viewBox="0 0 20 23" version="1.1" xmlns="http://www.w3.org/2000/svg" xmlns:xlink="http://www.w3.org/1999/xlink">
    <!-- Generator: Sketch 47.1 (45422) - http://www.bohemiancoding.com/sketch -->
    <title>1495001373_cart2-21</title>
    <desc>Created with Sketch.</desc>
    <defs></defs>
    <g id="PDP" stroke="none" stroke-width="1" fill="none" fill-rule="evenodd">
        <g id="1440-Add-to-Cart-Behavior-Copy-2" transform="translate(-968.000000, -18.000000)" fill-rule="nonzero" fill="#000000">
            <g id="1495001373_cart2-21" transform="translate(968.000000, 18.000000)">
                <path d="M17.3795877,5.38479532 C17.3795877,5.18662355 17.2180367,5.02690058 17.0175968,5.02690058 L2.53795877,5.02690058 C2.33751886,5.02690058 2.17596782,5.18662355 2.1744812,5.41719759 L0.728004022,21.1321637 C0.728004022,21.3303355 0.889555063,21.4900585 1.08999497,21.4900585 L18.4655606,21.4900585 C18.6614311,21.4900585 18.8201657,21.3375348 18.8273011,21.1456554 L17.3795877,5.38479532 Z M19.5500468,21.0997615 C19.5515334,21.7256551 19.0658447,22.205848 18.4655606,22.205848 L1.08999497,22.205848 C0.4897109,22.205848 0.00402212167,21.7256551 0.00550874376,21.0997615 L1.45198592,5.38479532 C1.45198592,4.79130394 1.9376747,4.31111111 2.53795877,4.31111111 L17.0175968,4.31111111 C17.6178809,4.31111111 18.1035696,4.79130394 18.102083,5.35239305 L19.5500468,21.0997615 Z" id="Shape"></path>
                <path d="M5.79587733,7.53216374 L5.79587733,4.66900585 C5.79587733,2.49525513 7.57914782,0.732163743 9.77777778,0.732163743 C11.9764077,0.732163743 13.7596782,2.49525513 13.7596782,4.66900585 L13.7596782,7.53216374 L14.4836601,7.53216374 L14.4836601,4.66900585 C14.4836601,2.09993552 12.3762519,0.016374269 9.77777778,0.016374269 C7.17930366,0.016374269 5.07189542,2.09993552 5.07189542,4.66900585 L5.07189542,7.53216374 L5.79587733,7.53216374 Z" id="Shape"></path>
                <path d="M5.43388638,8.60584795 C5.03404221,8.60584795 4.70990447,8.28537809 4.70990447,7.89005848 C4.70990447,7.49473887 5.03404221,7.17426901 5.43388638,7.17426901 C5.83373054,7.17426901 6.15786828,7.49473887 6.15786828,7.89005848 C6.15786828,8.28537809 5.83373054,8.60584795 5.43388638,8.60584795 Z" id="Oval"></path>
                <path d="M14.1216692,8.60584795 C13.721825,8.60584795 13.3976873,8.28537809 13.3976873,7.89005848 C13.3976873,7.49473887 13.721825,7.17426901 14.1216692,7.17426901 C14.5215133,7.17426901 14.8456511,7.49473887 14.8456511,7.89005848 C14.8456511,8.28537809 14.5215133,8.60584795 14.1216692,8.60584795 Z" id="Oval"></path>
                <polygon id="Shape" points="0.562936149 19.3426901 18.9926194 19.3426901 18.9926194 18.6269006 0.562936149 18.6269006"></polygon>
            </g>
        </g>
    </g>
</svg>